<?xml version="1.0" encoding="UTF-8"?>
<svg height="20.0" width="519.8039215686274" xmlns="http://www.w3.org/2000/svg">
 <g>
  <rect x="10.0" y="-215.0" width="9.803921568627452" height="225.0" style="fill:cyan;opacity:0.3;"/>
  <text x="10.0" y="10.0" transform="matrix(6.123233995736766E-17,-1.0,1.0,6.123233995736766E-17,0.0,20.0)" style="font-size:1.0000000000000013px;">malaria</text>
  <rect x="19.0" y="-203.0" width="9.803921568627452" height="213.0" style="fill:cyan;opacity:0.3;"/>
  <text x="19.0" y="10.0" transform="matrix(6.123233995736766E-17,-1.0,1.0,6.123233995736766E-17,8.999999999999998,29.0)" style="font-size:1.0000000000000013px;">suppression</text>
  <rect x="29.0" y="-155.0" width="9.803921568627452" height="165.0" style="fill:cyan;opacity:0.3;"/>
  <text x="29.0" y="10.0" transform="matrix(6.123233995736766E-17,-1.0,1.0,6.123233995736766E-17,19.0,39.0)" style="font-size:1.0000000000000013px;">infectious dise</text>
  <rect x="39.0" y="-132.0" width="9.803921568627452" height="142.0" style="fill:cyan;opacity:0.3;"/>
  <text x="39.0" y="10.0" transform="matrix(6.123233995736766E-17,-1.0,1.0,6.123233995736766E-17,29.0,49.0)" style="font-size:1.0000000000000013px;">chikungunya</text>
  <rect x="49.0" y="-120.0" width="9.803921568627452" height="130.0" style="fill:cyan;opacity:0.3;"/>
  <text x="49.0" y="10.0" transform="matrix(6.123233995736766E-17,-1.0,1.0,6.123233995736766E-17,39.0,59.0)" style="font-size:1.0000000000000013px;">dengue fever</text>
  <rect x="59.0" y="-96.0" width="9.803921568627452" height="106.0" style="fill:cyan;opacity:0.3;"/>
  <text x="59.0" y="10.0" transform="matrix(6.123233995736766E-17,-1.0,1.0,6.123233995736766E-17,49.0,69.0)" style="font-size:1.0000000000000013px;">cancer</text>
  <rect x="68.0" y="-49.0" width="9.803921568627452" height="59.0" style="fill:cyan;opacity:0.3;"/>
  <text x="68.0" y="10.0" transform="matrix(6.123233995736766E-17,-1.0,1.0,6.123233995736766E-17,58.0,78.0)" style="font-size:1.0000000000000013px;">aids</text>
  <rect x="78.0" y="-37.0" width="9.803921568627452" height="47.0" style="fill:cyan;opacity:0.3;"/>
  <text x="78.0" y="10.0" transform="matrix(6.123233995736766E-17,-1.0,1.0,6.123233995736766E-17,68.0,88.0)" style="font-size:1.0000000000000013px;">mouth disease</text>
  <rect x="88.0" y="-37.0" width="9.803921568627452" height="47.0" style="fill:cyan;opacity:0.3;"/>
  <text x="88.0" y="10.0" transform="matrix(6.123233995736766E-17,-1.0,1.0,6.123233995736766E-17,78.0,98.0)" style="font-size:1.0000000000000013px;">influenza</text>
  <rect x="98.0" y="-37.0" width="9.803921568627452" height="47.0" style="fill:cyan;opacity:0.3;"/>
  <text x="98.0" y="10.0" transform="matrix(6.123233995736766E-17,-1.0,1.0,6.123233995736766E-17,88.0,108.0)" style="font-size:1.0000000000000013px;">infectious dise</text>
  <rect x="108.0" y="-37.0" width="9.803921568627452" height="47.0" style="fill:cyan;opacity:0.3;"/>
  <text x="108.0" y="10.0" transform="matrix(6.123233995736766E-17,-1.0,1.0,6.123233995736766E-17,98.0,118.0)" style="font-size:1.0000000000000013px;">rabies</text>
  <rect x="117.0" y="-37.0" width="9.803921568627452" height="47.0" style="fill:cyan;opacity:0.3;"/>
  <text x="117.0" y="10.0" transform="matrix(6.123233995736766E-17,-1.0,1.0,6.123233995736766E-17,107.0,127.0)" style="font-size:1.0000000000000013px;">encephalitis</text>
  <rect x="127.0" y="-25.0" width="9.803921568627452" height="35.0" style="fill:cyan;opacity:0.3;"/>
  <text x="127.0" y="10.0" transform="matrix(6.123233995736766E-17,-1.0,1.0,6.123233995736766E-17,117.0,137.0)" style="font-size:1.0000000000000013px;">rubella</text>
  <rect x="137.0" y="-25.0" width="9.803921568627452" height="35.0" style="fill:cyan;opacity:0.3;"/>
  <text x="137.0" y="10.0" transform="matrix(6.123233995736766E-17,-1.0,1.0,6.123233995736766E-17,126.99999999999999,147.0)" style="font-size:1.0000000000000013px;">dengue fever,</text>
  <rect x="147.0" y="-25.0" width="9.803921568627452" height="35.0" style="fill:cyan;opacity:0.3;"/>
  <text x="147.0" y="10.0" transform="matrix(6.123233995736766E-17,-1.0,1.0,6.123233995736766E-17,137.0,157.0)" style="font-size:1.0000000000000013px;">tick-borne ence</text>
  <rect x="157.0" y="-25.0" width="9.803921568627452" height="35.0" style="fill:cyan;opacity:0.3;"/>
  <text x="157.0" y="10.0" transform="matrix(6.123233995736766E-17,-1.0,1.0,6.123233995736766E-17,147.0,167.0)" style="font-size:1.0000000000000013px;">hand, foot and </text>
  <rect x="166.0" y="-13.0" width="9.803921568627452" height="23.0" style="fill:cyan;opacity:0.3;"/>
  <text x="166.0" y="10.0" transform="matrix(6.123233995736766E-17,-1.0,1.0,6.123233995736766E-17,156.0,176.0)" style="font-size:1.0000000000000013px;">plague</text>
  <rect x="176.0" y="-13.0" width="9.803921568627452" height="23.0" style="fill:cyan;opacity:0.3;"/>
  <text x="176.0" y="10.0" transform="matrix(6.123233995736766E-17,-1.0,1.0,6.123233995736766E-17,166.0,186.0)" style="font-size:1.0000000000000013px;">tuberculosis</text>
  <rect x="186.0" y="-13.0" width="9.803921568627452" height="23.0" style="fill:cyan;opacity:0.3;"/>
  <text x="186.0" y="10.0" transform="matrix(6.123233995736766E-17,-1.0,1.0,6.123233995736766E-17,176.0,196.0)" style="font-size:1.0000000000000013px;">yellow fever,</text>
  <rect x="196.0" y="-13.0" width="9.803921568627452" height="23.0" style="fill:cyan;opacity:0.3;"/>
  <text x="196.0" y="10.0" transform="matrix(6.123233995736766E-17,-1.0,1.0,6.123233995736766E-17,186.0,206.0)" style="font-size:1.0000000000000013px;">infectious dise</text>
  <rect x="206.0" y="-13.0" width="9.803921568627452" height="23.0" style="fill:cyan;opacity:0.3;"/>
  <text x="206.0" y="10.0" transform="matrix(6.123233995736766E-17,-1.0,1.0,6.123233995736766E-17,196.0,216.0)" style="font-size:1.0000000000000013px;">metabolic disor</text>
  <rect x="215.0" y="-13.0" width="9.803921568627452" height="23.0" style="fill:cyan;opacity:0.3;"/>
  <text x="215.0" y="10.0" transform="matrix(6.123233995736766E-17,-1.0,1.0,6.123233995736766E-17,205.0,225.0)" style="font-size:1.0000000000000013px;">candidiasis</text>
  <rect x="225.0" y="-13.0" width="9.803921568627452" height="23.0" style="fill:cyan;opacity:0.3;"/>
  <text x="225.0" y="10.0" transform="matrix(6.123233995736766E-17,-1.0,1.0,6.123233995736766E-17,215.0,235.0)" style="font-size:1.0000000000000013px;">cardiomyopathy</text>
  <rect x="235.0" y="-13.0" width="9.803921568627452" height="23.0" style="fill:cyan;opacity:0.3;"/>
  <text x="235.0" y="10.0" transform="matrix(6.123233995736766E-17,-1.0,1.0,6.123233995736766E-17,225.0,245.0)" style="font-size:1.0000000000000013px;">myiasis</text>
  <rect x="245.0" y="-13.0" width="9.803921568627452" height="23.0" style="fill:cyan;opacity:0.3;"/>
  <text x="245.0" y="10.0" transform="matrix(6.123233995736766E-17,-1.0,1.0,6.123233995736766E-17,235.0,255.0)" style="font-size:1.0000000000000013px;">dengue hemorrha</text>
  <rect x="255.0" y="-13.0" width="9.803921568627452" height="23.0" style="fill:cyan;opacity:0.3;"/>
  <text x="255.0" y="10.0" transform="matrix(6.123233995736766E-17,-1.0,1.0,6.123233995736766E-17,244.99999999999997,265.0)" style="font-size:1.0000000000000013px;">enamel hypoplas</text>
  <rect x="264.0" y="-13.0" width="9.803921568627452" height="23.0" style="fill:cyan;opacity:0.3;"/>
  <text x="264.0" y="10.0" transform="matrix(6.123233995736766E-17,-1.0,1.0,6.123233995736766E-17,253.99999999999997,274.0)" style="font-size:1.0000000000000013px;">measles</text>
  <rect x="274.0" y="-1.0" width="9.803921568627452" height="11.0" style="fill:cyan;opacity:0.3;"/>
  <text x="274.0" y="10.0" transform="matrix(6.123233995736766E-17,-1.0,1.0,6.123233995736766E-17,264.0,284.0)" style="font-size:1.0000000000000013px;">hand, foot, and</text>
  <rect x="284.0" y="-1.0" width="9.803921568627452" height="11.0" style="fill:cyan;opacity:0.3;"/>
  <text x="284.0" y="10.0" transform="matrix(6.123233995736766E-17,-1.0,1.0,6.123233995736766E-17,274.0,294.0)" style="font-size:1.0000000000000013px;">filariasis</text>
  <rect x="294.0" y="-1.0" width="9.803921568627452" height="11.0" style="fill:cyan;opacity:0.3;"/>
  <text x="294.0" y="10.0" transform="matrix(6.123233995736766E-17,-1.0,1.0,6.123233995736766E-17,284.0,304.0)" style="font-size:1.0000000000000013px;">hand, foot, and</text>
  <rect x="304.0" y="-1.0" width="9.803921568627452" height="11.0" style="fill:cyan;opacity:0.3;"/>
  <text x="304.0" y="10.0" transform="matrix(6.123233995736766E-17,-1.0,1.0,6.123233995736766E-17,294.0,314.0)" style="font-size:1.0000000000000013px;">respiratory dis</text>
  <rect x="313.0" y="-1.0" width="9.803921568627452" height="11.0" style="fill:cyan;opacity:0.3;"/>
  <text x="313.0" y="10.0" transform="matrix(6.123233995736766E-17,-1.0,1.0,6.123233995736766E-17,303.0,323.0)" style="font-size:1.0000000000000013px;">giardiasis</text>
  <rect x="323.0" y="-1.0" width="9.803921568627452" height="11.0" style="fill:cyan;opacity:0.3;"/>
  <text x="323.0" y="10.0" transform="matrix(6.123233995736766E-17,-1.0,1.0,6.123233995736766E-17,313.0,333.0)" style="font-size:1.0000000000000013px;">trypanosomiasis</text>
  <rect x="333.0" y="-1.0" width="9.803921568627452" height="11.0" style="fill:cyan;opacity:0.3;"/>
  <text x="333.0" y="10.0" transform="matrix(6.123233995736766E-17,-1.0,1.0,6.123233995736766E-17,323.0,343.0)" style="font-size:1.0000000000000013px;">leishmaniasis</text>
  <rect x="343.0" y="-1.0" width="9.803921568627452" height="11.0" style="fill:cyan;opacity:0.3;"/>
  <text x="343.0" y="10.0" transform="matrix(6.123233995736766E-17,-1.0,1.0,6.123233995736766E-17,333.0,353.0)" style="font-size:1.0000000000000013px;">diarrhea</text>
  <rect x="353.0" y="-1.0" width="9.803921568627452" height="11.0" style="fill:cyan;opacity:0.3;"/>
  <text x="353.0" y="10.0" transform="matrix(6.123233995736766E-17,-1.0,1.0,6.123233995736766E-17,343.0,363.0)" style="font-size:1.0000000000000013px;">anthrax</text>
  <rect x="362.0" y="-1.0" width="9.803921568627452" height="11.0" style="fill:cyan;opacity:0.3;"/>
  <text x="362.0" y="10.0" transform="matrix(6.123233995736766E-17,-1.0,1.0,6.123233995736766E-17,352.0,372.0)" style="font-size:1.0000000000000013px;">bronchiolitis</text>
  <rect x="372.0" y="-1.0" width="9.803921568627452" height="11.0" style="fill:cyan;opacity:0.3;"/>
  <text x="372.0" y="10.0" transform="matrix(6.123233995736766E-17,-1.0,1.0,6.123233995736766E-17,362.0,382.0)" style="font-size:1.0000000000000013px;">metabolic syndr</text>
  <rect x="382.0" y="-1.0" width="9.803921568627452" height="11.0" style="fill:cyan;opacity:0.3;"/>
  <text x="382.0" y="10.0" transform="matrix(6.123233995736766E-17,-1.0,1.0,6.123233995736766E-17,372.0,392.0)" style="font-size:1.0000000000000013px;">mouth disease.</text>
  <rect x="392.0" y="-1.0" width="9.803921568627452" height="11.0" style="fill:cyan;opacity:0.3;"/>
  <text x="392.0" y="10.0" transform="matrix(6.123233995736766E-17,-1.0,1.0,6.123233995736766E-17,382.0,402.0)" style="font-size:1.0000000000000013px;">bacterial vagin</text>
  <rect x="402.0" y="-1.0" width="9.803921568627452" height="11.0" style="fill:cyan;opacity:0.3;"/>
  <text x="402.0" y="10.0" transform="matrix(6.123233995736766E-17,-1.0,1.0,6.123233995736766E-17,392.0,412.0)" style="font-size:1.0000000000000013px;">dengue fever.</text>
  <rect x="411.0" y="-1.0" width="9.803921568627452" height="11.0" style="fill:cyan;opacity:0.3;"/>
  <text x="411.0" y="10.0" transform="matrix(6.123233995736766E-17,-1.0,1.0,6.123233995736766E-17,401.0,421.0)" style="font-size:1.0000000000000013px;">pneumonia</text>
  <rect x="421.0" y="-1.0" width="9.803921568627452" height="11.0" style="fill:cyan;opacity:0.3;"/>
  <text x="421.0" y="10.0" transform="matrix(6.123233995736766E-17,-1.0,1.0,6.123233995736766E-17,411.0,431.0)" style="font-size:1.0000000000000013px;">lyme disease</text>
  <rect x="431.0" y="-1.0" width="9.803921568627452" height="11.0" style="fill:cyan;opacity:0.3;"/>
  <text x="431.0" y="10.0" transform="matrix(6.123233995736766E-17,-1.0,1.0,6.123233995736766E-17,421.0,441.0)" style="font-size:1.0000000000000013px;">lymphoma</text>
  <rect x="441.0" y="-1.0" width="9.803921568627452" height="11.0" style="fill:cyan;opacity:0.3;"/>
  <text x="441.0" y="10.0" transform="matrix(6.123233995736766E-17,-1.0,1.0,6.123233995736766E-17,431.0,451.0)" style="font-size:1.0000000000000013px;">breast cancer</text>
  <rect x="451.0" y="-1.0" width="9.803921568627452" height="11.0" style="fill:cyan;opacity:0.3;"/>
  <text x="451.0" y="10.0" transform="matrix(6.123233995736766E-17,-1.0,1.0,6.123233995736766E-17,441.0,461.0)" style="font-size:1.0000000000000013px;">heart disease,</text>
  <rect x="460.0" y="-1.0" width="9.803921568627452" height="11.0" style="fill:cyan;opacity:0.3;"/>
  <text x="460.0" y="10.0" transform="matrix(6.123233995736766E-17,-1.0,1.0,6.123233995736766E-17,450.0,470.0)" style="font-size:1.0000000000000013px;">macular degener</text>
  <rect x="470.0" y="-1.0" width="9.803921568627452" height="11.0" style="fill:cyan;opacity:0.3;"/>
  <text x="470.0" y="10.0" transform="matrix(6.123233995736766E-17,-1.0,1.0,6.123233995736766E-17,460.0,480.0)" style="font-size:1.0000000000000013px;">autism</text>
  <rect x="480.0" y="-1.0" width="9.803921568627452" height="11.0" style="fill:cyan;opacity:0.3;"/>
  <text x="480.0" y="10.0" transform="matrix(6.123233995736766E-17,-1.0,1.0,6.123233995736766E-17,469.99999999999994,490.0)" style="font-size:1.0000000000000013px;">viral disease</text>
  <rect x="490.0" y="-1.0" width="9.803921568627452" height="11.0" style="fill:cyan;opacity:0.3;"/>
  <text x="490.0" y="10.0" transform="matrix(6.123233995736766E-17,-1.0,1.0,6.123233995736766E-17,479.99999999999994,500.0)" style="font-size:1.0000000000000013px;">cryptosporidios</text>
  <rect x="500.0" y="-1.0" width="9.803921568627452" height="11.0" style="fill:cyan;opacity:0.3;"/>
  <text x="500.0" y="10.0" transform="matrix(6.123233995736766E-17,-1.0,1.0,6.123233995736766E-17,489.99999999999994,510.0)" style="font-size:1.0000000000000013px;">visceral leishm</text>
 </g>
</svg>
