<?xml version="1.0" encoding="UTF-8"?>
<svg height="20.0" width="519.5510204081633" xmlns="http://www.w3.org/2000/svg">
 <g>
  <rect x="10.0" y="-215.0" width="2.5510204081632653" height="225.0" style="fill:cyan;opacity:0.3;"/>
  <text x="10.0" y="10.0" transform="matrix(6.123233995736766E-17,-1.0,1.0,6.123233995736766E-17,0.0,20.0)" style="font-size:1.0000000000000013px;">United States</text>
  <rect x="12.0" y="-183.0" width="2.5510204081632653" height="193.0" style="fill:cyan;opacity:0.3;"/>
  <text x="12.0" y="10.0" transform="matrix(6.123233995736766E-17,-1.0,1.0,6.123233995736766E-17,2.0,22.0)" style="font-size:1.0000000000000013px;">China</text>
  <rect x="15.0" y="-123.0" width="2.5510204081632653" height="133.0" style="fill:cyan;opacity:0.3;"/>
  <text x="15.0" y="10.0" transform="matrix(6.123233995736766E-17,-1.0,1.0,6.123233995736766E-17,4.999999999999998,25.0)" style="font-size:1.0000000000000013px;">Australia</text>
  <rect x="17.0" y="-122.0" width="2.5510204081632653" height="132.0" style="fill:cyan;opacity:0.3;"/>
  <text x="17.0" y="10.0" transform="matrix(6.123233995736766E-17,-1.0,1.0,6.123233995736766E-17,6.999999999999998,27.0)" style="font-size:1.0000000000000013px;">Canada</text>
  <rect x="20.0" y="-74.0" width="2.5510204081632653" height="84.0" style="fill:cyan;opacity:0.3;"/>
  <text x="20.0" y="10.0" transform="matrix(6.123233995736766E-17,-1.0,1.0,6.123233995736766E-17,9.999999999999998,30.0)" style="font-size:1.0000000000000013px;">South Africa</text>
  <rect x="22.0" y="-66.0" width="2.5510204081632653" height="76.0" style="fill:cyan;opacity:0.3;"/>
  <text x="22.0" y="10.0" transform="matrix(6.123233995736766E-17,-1.0,1.0,6.123233995736766E-17,11.999999999999998,32.0)" style="font-size:1.0000000000000013px;">Mexico</text>
  <rect x="25.0" y="-62.0" width="2.5510204081632653" height="72.0" style="fill:cyan;opacity:0.3;"/>
  <text x="25.0" y="10.0" transform="matrix(6.123233995736766E-17,-1.0,1.0,6.123233995736766E-17,14.999999999999998,35.0)" style="font-size:1.0000000000000013px;">Germany</text>
  <rect x="27.0" y="-60.0" width="2.5510204081632653" height="70.0" style="fill:cyan;opacity:0.3;"/>
  <text x="27.0" y="10.0" transform="matrix(6.123233995736766E-17,-1.0,1.0,6.123233995736766E-17,17.0,37.0)" style="font-size:1.0000000000000013px;">Brazil</text>
  <rect x="30.0" y="-52.0" width="2.5510204081632653" height="62.0" style="fill:cyan;opacity:0.3;"/>
  <text x="30.0" y="10.0" transform="matrix(6.123233995736766E-17,-1.0,1.0,6.123233995736766E-17,20.0,40.0)" style="font-size:1.0000000000000013px;">India</text>
  <rect x="32.0" y="-50.0" width="2.5510204081632653" height="60.0" style="fill:cyan;opacity:0.3;"/>
  <text x="32.0" y="10.0" transform="matrix(6.123233995736766E-17,-1.0,1.0,6.123233995736766E-17,22.0,42.0)" style="font-size:1.0000000000000013px;">Japan</text>
  <rect x="35.0" y="-49.0" width="2.5510204081632653" height="59.0" style="fill:cyan;opacity:0.3;"/>
  <text x="35.0" y="10.0" transform="matrix(6.123233995736766E-17,-1.0,1.0,6.123233995736766E-17,25.0,45.0)" style="font-size:1.0000000000000013px;">Netherlands</text>
  <rect x="38.0" y="-47.0" width="2.5510204081632653" height="57.0" style="fill:cyan;opacity:0.3;"/>
  <text x="38.0" y="10.0" transform="matrix(6.123233995736766E-17,-1.0,1.0,6.123233995736766E-17,28.0,48.0)" style="font-size:1.0000000000000013px;">Bangladesh</text>
  <rect x="40.0" y="-42.0" width="2.5510204081632653" height="52.0" style="fill:cyan;opacity:0.3;"/>
  <text x="40.0" y="10.0" transform="matrix(6.123233995736766E-17,-1.0,1.0,6.123233995736766E-17,30.0,50.0)" style="font-size:1.0000000000000013px;">Switzerland</text>
  <rect x="43.0" y="-40.0" width="2.5510204081632653" height="50.0" style="fill:cyan;opacity:0.3;"/>
  <text x="43.0" y="10.0" transform="matrix(6.123233995736766E-17,-1.0,1.0,6.123233995736766E-17,33.0,53.0)" style="font-size:1.0000000000000013px;">Italy</text>
  <rect x="45.0" y="-39.0" width="2.5510204081632653" height="49.0" style="fill:cyan;opacity:0.3;"/>
  <text x="45.0" y="10.0" transform="matrix(6.123233995736766E-17,-1.0,1.0,6.123233995736766E-17,35.0,55.0)" style="font-size:1.0000000000000013px;">Norway</text>
  <rect x="48.0" y="-36.0" width="2.5510204081632653" height="46.0" style="fill:cyan;opacity:0.3;"/>
  <text x="48.0" y="10.0" transform="matrix(6.123233995736766E-17,-1.0,1.0,6.123233995736766E-17,38.0,58.0)" style="font-size:1.0000000000000013px;">United Kingdom</text>
  <rect x="50.0" y="-35.0" width="2.5510204081632653" height="45.0" style="fill:cyan;opacity:0.3;"/>
  <text x="50.0" y="10.0" transform="matrix(6.123233995736766E-17,-1.0,1.0,6.123233995736766E-17,40.0,60.0)" style="font-size:1.0000000000000013px;">United States,</text>
  <rect x="53.0" y="-34.0" width="2.5510204081632653" height="44.0" style="fill:cyan;opacity:0.3;"/>
  <text x="53.0" y="10.0" transform="matrix(6.123233995736766E-17,-1.0,1.0,6.123233995736766E-17,43.0,63.0)" style="font-size:1.0000000000000013px;">Kenya</text>
  <rect x="55.0" y="-32.0" width="2.5510204081632653" height="42.0" style="fill:cyan;opacity:0.3;"/>
  <text x="55.0" y="10.0" transform="matrix(6.123233995736766E-17,-1.0,1.0,6.123233995736766E-17,45.0,65.0)" style="font-size:1.0000000000000013px;">France</text>
  <rect x="58.0" y="-31.0" width="2.5510204081632653" height="41.0" style="fill:cyan;opacity:0.3;"/>
  <text x="58.0" y="10.0" transform="matrix(6.123233995736766E-17,-1.0,1.0,6.123233995736766E-17,48.0,68.0)" style="font-size:1.0000000000000013px;">Sweden</text>
  <rect x="61.0" y="-29.0" width="2.5510204081632653" height="39.0" style="fill:cyan;opacity:0.3;"/>
  <text x="61.0" y="10.0" transform="matrix(6.123233995736766E-17,-1.0,1.0,6.123233995736766E-17,51.0,71.0)" style="font-size:1.0000000000000013px;">South Africa.</text>
  <rect x="63.0" y="-28.0" width="2.5510204081632653" height="38.0" style="fill:cyan;opacity:0.3;"/>
  <text x="63.0" y="10.0" transform="matrix(6.123233995736766E-17,-1.0,1.0,6.123233995736766E-17,53.0,73.0)" style="font-size:1.0000000000000013px;">Spain</text>
  <rect x="66.0" y="-25.0" width="2.5510204081632653" height="35.0" style="fill:cyan;opacity:0.3;"/>
  <text x="66.0" y="10.0" transform="matrix(6.123233995736766E-17,-1.0,1.0,6.123233995736766E-17,56.0,76.0)" style="font-size:1.0000000000000013px;">United States.</text>
  <rect x="68.0" y="-23.0" width="2.5510204081632653" height="33.0" style="fill:cyan;opacity:0.3;"/>
  <text x="68.0" y="10.0" transform="matrix(6.123233995736766E-17,-1.0,1.0,6.123233995736766E-17,58.0,78.0)" style="font-size:1.0000000000000013px;">Chile</text>
  <rect x="71.0" y="-21.0" width="2.5510204081632653" height="31.0" style="fill:cyan;opacity:0.3;"/>
  <text x="71.0" y="10.0" transform="matrix(6.123233995736766E-17,-1.0,1.0,6.123233995736766E-17,61.0,81.0)" style="font-size:1.0000000000000013px;">South Africa,</text>
  <rect x="73.0" y="-18.0" width="2.5510204081632653" height="28.0" style="fill:cyan;opacity:0.3;"/>
  <text x="73.0" y="10.0" transform="matrix(6.123233995736766E-17,-1.0,1.0,6.123233995736766E-17,62.99999999999999,83.0)" style="font-size:1.0000000000000013px;">Ghana</text>
  <rect x="76.0" y="-15.0" width="2.5510204081632653" height="25.0" style="fill:cyan;opacity:0.3;"/>
  <text x="76.0" y="10.0" transform="matrix(6.123233995736766E-17,-1.0,1.0,6.123233995736766E-17,66.0,86.0)" style="font-size:1.0000000000000013px;">Zimbabwe</text>
  <rect x="78.0" y="-15.0" width="2.5510204081632653" height="25.0" style="fill:cyan;opacity:0.3;"/>
  <text x="78.0" y="10.0" transform="matrix(6.123233995736766E-17,-1.0,1.0,6.123233995736766E-17,68.0,88.0)" style="font-size:1.0000000000000013px;">New Zealand</text>
  <rect x="81.0" y="-14.0" width="2.5510204081632653" height="24.0" style="fill:cyan;opacity:0.3;"/>
  <text x="81.0" y="10.0" transform="matrix(6.123233995736766E-17,-1.0,1.0,6.123233995736766E-17,71.0,91.0)" style="font-size:1.0000000000000013px;">Ethiopia</text>
  <rect x="83.0" y="-14.0" width="2.5510204081632653" height="24.0" style="fill:cyan;opacity:0.3;"/>
  <text x="83.0" y="10.0" transform="matrix(6.123233995736766E-17,-1.0,1.0,6.123233995736766E-17,73.0,93.0)" style="font-size:1.0000000000000013px;">Greenland</text>
  <rect x="86.0" y="-12.0" width="2.5510204081632653" height="22.0" style="fill:cyan;opacity:0.3;"/>
  <text x="86.0" y="10.0" transform="matrix(6.123233995736766E-17,-1.0,1.0,6.123233995736766E-17,76.0,96.0)" style="font-size:1.0000000000000013px;">Nepal</text>
  <rect x="89.0" y="-12.0" width="2.5510204081632653" height="22.0" style="fill:cyan;opacity:0.3;"/>
  <text x="89.0" y="10.0" transform="matrix(6.123233995736766E-17,-1.0,1.0,6.123233995736766E-17,79.0,99.0)" style="font-size:1.0000000000000013px;">Pakistan</text>
  <rect x="91.0" y="-11.0" width="2.5510204081632653" height="21.0" style="fill:cyan;opacity:0.3;"/>
  <text x="91.0" y="10.0" transform="matrix(6.123233995736766E-17,-1.0,1.0,6.123233995736766E-17,81.0,101.0)" style="font-size:1.0000000000000013px;">Philippines</text>
  <rect x="94.0" y="-9.0" width="2.5510204081632653" height="19.0" style="fill:cyan;opacity:0.3;"/>
  <text x="94.0" y="10.0" transform="matrix(6.123233995736766E-17,-1.0,1.0,6.123233995736766E-17,84.0,104.0)" style="font-size:1.0000000000000013px;">Colombia</text>
  <rect x="96.0" y="-9.0" width="2.5510204081632653" height="19.0" style="fill:cyan;opacity:0.3;"/>
  <text x="96.0" y="10.0" transform="matrix(6.123233995736766E-17,-1.0,1.0,6.123233995736766E-17,86.0,106.0)" style="font-size:1.0000000000000013px;">Austria</text>
  <rect x="99.0" y="-8.0" width="2.5510204081632653" height="18.0" style="fill:cyan;opacity:0.3;"/>
  <text x="99.0" y="10.0" transform="matrix(6.123233995736766E-17,-1.0,1.0,6.123233995736766E-17,89.0,109.0)" style="font-size:1.0000000000000013px;">Antarctica</text>
  <rect x="101.0" y="-7.0" width="2.5510204081632653" height="17.0" style="fill:cyan;opacity:0.3;"/>
  <text x="101.0" y="10.0" transform="matrix(6.123233995736766E-17,-1.0,1.0,6.123233995736766E-17,91.0,111.0)" style="font-size:1.0000000000000013px;">Poland</text>
  <rect x="104.0" y="-7.0" width="2.5510204081632653" height="17.0" style="fill:cyan;opacity:0.3;"/>
  <text x="104.0" y="10.0" transform="matrix(6.123233995736766E-17,-1.0,1.0,6.123233995736766E-17,94.0,114.0)" style="font-size:1.0000000000000013px;">Portugal</text>
  <rect x="106.0" y="-7.0" width="2.5510204081632653" height="17.0" style="fill:cyan;opacity:0.3;"/>
  <text x="106.0" y="10.0" transform="matrix(6.123233995736766E-17,-1.0,1.0,6.123233995736766E-17,96.0,116.0)" style="font-size:1.0000000000000013px;">Peru</text>
  <rect x="109.0" y="-6.0" width="2.5510204081632653" height="16.0" style="fill:cyan;opacity:0.3;"/>
  <text x="109.0" y="10.0" transform="matrix(6.123233995736766E-17,-1.0,1.0,6.123233995736766E-17,99.0,119.0)" style="font-size:1.0000000000000013px;">Finland</text>
  <rect x="112.0" y="-6.0" width="2.5510204081632653" height="16.0" style="fill:cyan;opacity:0.3;"/>
  <text x="112.0" y="10.0" transform="matrix(6.123233995736766E-17,-1.0,1.0,6.123233995736766E-17,102.0,122.0)" style="font-size:1.0000000000000013px;">Indonesia</text>
  <rect x="114.0" y="-6.0" width="2.5510204081632653" height="16.0" style="fill:cyan;opacity:0.3;"/>
  <text x="114.0" y="10.0" transform="matrix(6.123233995736766E-17,-1.0,1.0,6.123233995736766E-17,104.0,124.0)" style="font-size:1.0000000000000013px;">Kiribati</text>
  <rect x="117.0" y="-6.0" width="2.5510204081632653" height="16.0" style="fill:cyan;opacity:0.3;"/>
  <text x="117.0" y="10.0" transform="matrix(6.123233995736766E-17,-1.0,1.0,6.123233995736766E-17,107.0,127.0)" style="font-size:1.0000000000000013px;">Denmark</text>
  <rect x="119.0" y="-5.0" width="2.5510204081632653" height="15.0" style="fill:cyan;opacity:0.3;"/>
  <text x="119.0" y="10.0" transform="matrix(6.123233995736766E-17,-1.0,1.0,6.123233995736766E-17,109.0,129.0)" style="font-size:1.0000000000000013px;">Puerto Rico</text>
  <rect x="122.0" y="-5.0" width="2.5510204081632653" height="15.0" style="fill:cyan;opacity:0.3;"/>
  <text x="122.0" y="10.0" transform="matrix(6.123233995736766E-17,-1.0,1.0,6.123233995736766E-17,112.0,132.0)" style="font-size:1.0000000000000013px;">Singapore</text>
  <rect x="124.0" y="-4.0" width="2.5510204081632653" height="14.0" style="fill:cyan;opacity:0.3;"/>
  <text x="124.0" y="10.0" transform="matrix(6.123233995736766E-17,-1.0,1.0,6.123233995736766E-17,114.0,134.0)" style="font-size:1.0000000000000013px;">Iceland</text>
  <rect x="127.0" y="-4.0" width="2.5510204081632653" height="14.0" style="fill:cyan;opacity:0.3;"/>
  <text x="127.0" y="10.0" transform="matrix(6.123233995736766E-17,-1.0,1.0,6.123233995736766E-17,117.0,137.0)" style="font-size:1.0000000000000013px;">Ecuador</text>
  <rect x="129.0" y="-4.0" width="2.5510204081632653" height="14.0" style="fill:cyan;opacity:0.3;"/>
  <text x="129.0" y="10.0" transform="matrix(6.123233995736766E-17,-1.0,1.0,6.123233995736766E-17,119.0,139.0)" style="font-size:1.0000000000000013px;">Mongolia</text>
  <rect x="132.0" y="-4.0" width="2.5510204081632653" height="14.0" style="fill:cyan;opacity:0.3;"/>
  <text x="132.0" y="10.0" transform="matrix(6.123233995736766E-17,-1.0,1.0,6.123233995736766E-17,121.99999999999999,142.0)" style="font-size:1.0000000000000013px;">Nigeria</text>
  <rect x="135.0" y="-2.0" width="2.5510204081632653" height="12.0" style="fill:cyan;opacity:0.3;"/>
  <text x="135.0" y="10.0" transform="matrix(6.123233995736766E-17,-1.0,1.0,6.123233995736766E-17,124.99999999999999,145.0)" style="font-size:1.0000000000000013px;">Cuba</text>
  <rect x="137.0" y="-2.0" width="2.5510204081632653" height="12.0" style="fill:cyan;opacity:0.3;"/>
  <text x="137.0" y="10.0" transform="matrix(6.123233995736766E-17,-1.0,1.0,6.123233995736766E-17,126.99999999999999,147.0)" style="font-size:1.0000000000000013px;">Thailand</text>
  <rect x="140.0" y="-1.0" width="2.5510204081632653" height="11.0" style="fill:cyan;opacity:0.3;"/>
  <text x="140.0" y="10.0" transform="matrix(6.123233995736766E-17,-1.0,1.0,6.123233995736766E-17,130.0,150.0)" style="font-size:1.0000000000000013px;">Morocco</text>
  <rect x="142.0" y="-1.0" width="2.5510204081632653" height="11.0" style="fill:cyan;opacity:0.3;"/>
  <text x="142.0" y="10.0" transform="matrix(6.123233995736766E-17,-1.0,1.0,6.123233995736766E-17,132.0,152.0)" style="font-size:1.0000000000000013px;">Guinea</text>
  <rect x="145.0" y="0.0" width="2.5510204081632653" height="10.0" style="fill:cyan;opacity:0.3;"/>
  <text x="145.0" y="10.0" transform="matrix(6.123233995736766E-17,-1.0,1.0,6.123233995736766E-17,135.0,155.0)" style="font-size:1.0000000000000013px;">Bahamas</text>
  <rect x="147.0" y="0.0" width="2.5510204081632653" height="10.0" style="fill:cyan;opacity:0.3;"/>
  <text x="147.0" y="10.0" transform="matrix(6.123233995736766E-17,-1.0,1.0,6.123233995736766E-17,137.0,157.0)" style="font-size:1.0000000000000013px;">Argentina</text>
  <rect x="150.0" y="0.0" width="2.5510204081632653" height="10.0" style="fill:cyan;opacity:0.3;"/>
  <text x="150.0" y="10.0" transform="matrix(6.123233995736766E-17,-1.0,1.0,6.123233995736766E-17,140.0,160.0)" style="font-size:1.0000000000000013px;">Madagascar</text>
  <rect x="152.0" y="0.0" width="2.5510204081632653" height="10.0" style="fill:cyan;opacity:0.3;"/>
  <text x="152.0" y="10.0" transform="matrix(6.123233995736766E-17,-1.0,1.0,6.123233995736766E-17,142.0,162.0)" style="font-size:1.0000000000000013px;">United Kingdom,</text>
  <rect x="155.0" y="0.0" width="2.5510204081632653" height="10.0" style="fill:cyan;opacity:0.3;"/>
  <text x="155.0" y="10.0" transform="matrix(6.123233995736766E-17,-1.0,1.0,6.123233995736766E-17,145.0,165.0)" style="font-size:1.0000000000000013px;">Dominica</text>
  <rect x="157.0" y="0.0" width="2.5510204081632653" height="10.0" style="fill:cyan;opacity:0.3;"/>
  <text x="157.0" y="10.0" transform="matrix(6.123233995736766E-17,-1.0,1.0,6.123233995736766E-17,147.0,167.0)" style="font-size:1.0000000000000013px;">Belgium</text>
  <rect x="160.0" y="0.0" width="2.5510204081632653" height="10.0" style="fill:cyan;opacity:0.3;"/>
  <text x="160.0" y="10.0" transform="matrix(6.123233995736766E-17,-1.0,1.0,6.123233995736766E-17,150.0,170.0)" style="font-size:1.0000000000000013px;">Jamaica</text>
  <rect x="163.0" y="1.0" width="2.5510204081632653" height="9.0" style="fill:cyan;opacity:0.3;"/>
  <text x="163.0" y="10.0" transform="matrix(6.123233995736766E-17,-1.0,1.0,6.123233995736766E-17,153.0,173.0)" style="font-size:1.0000000000000013px;">Greece</text>
  <rect x="165.0" y="1.0" width="2.5510204081632653" height="9.0" style="fill:cyan;opacity:0.3;"/>
  <text x="165.0" y="10.0" transform="matrix(6.123233995736766E-17,-1.0,1.0,6.123233995736766E-17,155.0,175.0)" style="font-size:1.0000000000000013px;">Senegal</text>
  <rect x="168.0" y="2.0" width="2.5510204081632653" height="8.0" style="fill:cyan;opacity:0.3;"/>
  <text x="168.0" y="10.0" transform="matrix(6.123233995736766E-17,-1.0,1.0,6.123233995736766E-17,158.0,178.0)" style="font-size:1.0000000000000013px;">Jordan</text>
  <rect x="170.0" y="2.0" width="2.5510204081632653" height="8.0" style="fill:cyan;opacity:0.3;"/>
  <text x="170.0" y="10.0" transform="matrix(6.123233995736766E-17,-1.0,1.0,6.123233995736766E-17,160.0,180.0)" style="font-size:1.0000000000000013px;">Israel</text>
  <rect x="173.0" y="2.0" width="2.5510204081632653" height="8.0" style="fill:cyan;opacity:0.3;"/>
  <text x="173.0" y="10.0" transform="matrix(6.123233995736766E-17,-1.0,1.0,6.123233995736766E-17,163.0,183.0)" style="font-size:1.0000000000000013px;">Luxembourg</text>
  <rect x="175.0" y="2.0" width="2.5510204081632653" height="8.0" style="fill:cyan;opacity:0.3;"/>
  <text x="175.0" y="10.0" transform="matrix(6.123233995736766E-17,-1.0,1.0,6.123233995736766E-17,165.0,185.0)" style="font-size:1.0000000000000013px;">Guyana</text>
  <rect x="178.0" y="2.0" width="2.5510204081632653" height="8.0" style="fill:cyan;opacity:0.3;"/>
  <text x="178.0" y="10.0" transform="matrix(6.123233995736766E-17,-1.0,1.0,6.123233995736766E-17,168.0,188.0)" style="font-size:1.0000000000000013px;">Hong Kong</text>
  <rect x="180.0" y="2.0" width="2.5510204081632653" height="8.0" style="fill:cyan;opacity:0.3;"/>
  <text x="180.0" y="10.0" transform="matrix(6.123233995736766E-17,-1.0,1.0,6.123233995736766E-17,170.0,190.0)" style="font-size:1.0000000000000013px;">Costa Rica</text>
  <rect x="183.0" y="2.0" width="2.5510204081632653" height="8.0" style="fill:cyan;opacity:0.3;"/>
  <text x="183.0" y="10.0" transform="matrix(6.123233995736766E-17,-1.0,1.0,6.123233995736766E-17,173.0,193.0)" style="font-size:1.0000000000000013px;">Swaziland</text>
  <rect x="186.0" y="2.0" width="2.5510204081632653" height="8.0" style="fill:cyan;opacity:0.3;"/>
  <text x="186.0" y="10.0" transform="matrix(6.123233995736766E-17,-1.0,1.0,6.123233995736766E-17,176.0,196.0)" style="font-size:1.0000000000000013px;">Ireland</text>
  <rect x="188.0" y="2.0" width="2.5510204081632653" height="8.0" style="fill:cyan;opacity:0.3;"/>
  <text x="188.0" y="10.0" transform="matrix(6.123233995736766E-17,-1.0,1.0,6.123233995736766E-17,178.0,198.0)" style="font-size:1.0000000000000013px;">Barbados</text>
  <rect x="191.0" y="3.0" width="2.5510204081632653" height="7.0" style="fill:cyan;opacity:0.3;"/>
  <text x="191.0" y="10.0" transform="matrix(6.123233995736766E-17,-1.0,1.0,6.123233995736766E-17,181.0,201.0)" style="font-size:1.0000000000000013px;">Mali</text>
  <rect x="193.0" y="3.0" width="2.5510204081632653" height="7.0" style="fill:cyan;opacity:0.3;"/>
  <text x="193.0" y="10.0" transform="matrix(6.123233995736766E-17,-1.0,1.0,6.123233995736766E-17,183.0,203.0)" style="font-size:1.0000000000000013px;">Belize</text>
  <rect x="196.0" y="3.0" width="2.5510204081632653" height="7.0" style="fill:cyan;opacity:0.3;"/>
  <text x="196.0" y="10.0" transform="matrix(6.123233995736766E-17,-1.0,1.0,6.123233995736766E-17,186.0,206.0)" style="font-size:1.0000000000000013px;">French Polynesi</text>
  <rect x="198.0" y="3.0" width="2.5510204081632653" height="7.0" style="fill:cyan;opacity:0.3;"/>
  <text x="198.0" y="10.0" transform="matrix(6.123233995736766E-17,-1.0,1.0,6.123233995736766E-17,188.0,208.0)" style="font-size:1.0000000000000013px;">United Kingdom.</text>
  <rect x="201.0" y="3.0" width="2.5510204081632653" height="7.0" style="fill:cyan;opacity:0.3;"/>
  <text x="201.0" y="10.0" transform="matrix(6.123233995736766E-17,-1.0,1.0,6.123233995736766E-17,191.0,211.0)" style="font-size:1.0000000000000013px;">New Zealand,</text>
  <rect x="203.0" y="3.0" width="2.5510204081632653" height="7.0" style="fill:cyan;opacity:0.3;"/>
  <text x="203.0" y="10.0" transform="matrix(6.123233995736766E-17,-1.0,1.0,6.123233995736766E-17,193.0,213.0)" style="font-size:1.0000000000000013px;">Fiji</text>
  <rect x="206.0" y="3.0" width="2.5510204081632653" height="7.0" style="fill:cyan;opacity:0.3;"/>
  <text x="206.0" y="10.0" transform="matrix(6.123233995736766E-17,-1.0,1.0,6.123233995736766E-17,196.0,216.0)" style="font-size:1.0000000000000013px;">Chad</text>
  <rect x="208.0" y="3.0" width="2.5510204081632653" height="7.0" style="fill:cyan;opacity:0.3;"/>
  <text x="208.0" y="10.0" transform="matrix(6.123233995736766E-17,-1.0,1.0,6.123233995736766E-17,198.0,218.0)" style="font-size:1.0000000000000013px;">Hungary</text>
  <rect x="211.0" y="3.0" width="2.5510204081632653" height="7.0" style="fill:cyan;opacity:0.3;"/>
  <text x="211.0" y="10.0" transform="matrix(6.123233995736766E-17,-1.0,1.0,6.123233995736766E-17,201.0,221.0)" style="font-size:1.0000000000000013px;">Saudi Arabia</text>
  <rect x="214.0" y="3.0" width="2.5510204081632653" height="7.0" style="fill:cyan;opacity:0.3;"/>
  <text x="214.0" y="10.0" transform="matrix(6.123233995736766E-17,-1.0,1.0,6.123233995736766E-17,204.0,224.0)" style="font-size:1.0000000000000013px;">Dominican Repub</text>
  <rect x="216.0" y="5.0" width="2.5510204081632653" height="5.0" style="fill:cyan;opacity:0.3;"/>
  <text x="216.0" y="10.0" transform="matrix(6.123233995736766E-17,-1.0,1.0,6.123233995736766E-17,206.0,226.0)" style="font-size:1.0000000000000013px;">Zambia</text>
  <rect x="219.0" y="5.0" width="2.5510204081632653" height="5.0" style="fill:cyan;opacity:0.3;"/>
  <text x="219.0" y="10.0" transform="matrix(6.123233995736766E-17,-1.0,1.0,6.123233995736766E-17,209.0,229.0)" style="font-size:1.0000000000000013px;">Georgia</text>
  <rect x="221.0" y="5.0" width="2.5510204081632653" height="5.0" style="fill:cyan;opacity:0.3;"/>
  <text x="221.0" y="10.0" transform="matrix(6.123233995736766E-17,-1.0,1.0,6.123233995736766E-17,211.0,231.0)" style="font-size:1.0000000000000013px;">Jersey</text>
  <rect x="224.0" y="5.0" width="2.5510204081632653" height="5.0" style="fill:cyan;opacity:0.3;"/>
  <text x="224.0" y="10.0" transform="matrix(6.123233995736766E-17,-1.0,1.0,6.123233995736766E-17,214.0,234.0)" style="font-size:1.0000000000000013px;">Honduras</text>
  <rect x="226.0" y="5.0" width="2.5510204081632653" height="5.0" style="fill:cyan;opacity:0.3;"/>
  <text x="226.0" y="10.0" transform="matrix(6.123233995736766E-17,-1.0,1.0,6.123233995736766E-17,216.0,236.0)" style="font-size:1.0000000000000013px;">Bolivia</text>
  <rect x="229.0" y="6.0" width="2.5510204081632653" height="4.0" style="fill:cyan;opacity:0.3;"/>
  <text x="229.0" y="10.0" transform="matrix(6.123233995736766E-17,-1.0,1.0,6.123233995736766E-17,219.0,239.0)" style="font-size:1.0000000000000013px;">United States;</text>
  <rect x="231.0" y="6.0" width="2.5510204081632653" height="4.0" style="fill:cyan;opacity:0.3;"/>
  <text x="231.0" y="10.0" transform="matrix(6.123233995736766E-17,-1.0,1.0,6.123233995736766E-17,221.0,241.0)" style="font-size:1.0000000000000013px;">Namibia</text>
  <rect x="234.0" y="6.0" width="2.5510204081632653" height="4.0" style="fill:cyan;opacity:0.3;"/>
  <text x="234.0" y="10.0" transform="matrix(6.123233995736766E-17,-1.0,1.0,6.123233995736766E-17,224.0,244.0)" style="font-size:1.0000000000000013px;">Mauritania</text>
  <rect x="237.0" y="6.0" width="2.5510204081632653" height="4.0" style="fill:cyan;opacity:0.3;"/>
  <text x="237.0" y="10.0" transform="matrix(6.123233995736766E-17,-1.0,1.0,6.123233995736766E-17,227.0,247.0)" style="font-size:1.0000000000000013px;">Cyprus</text>
  <rect x="239.0" y="6.0" width="2.5510204081632653" height="4.0" style="fill:cyan;opacity:0.3;"/>
  <text x="239.0" y="10.0" transform="matrix(6.123233995736766E-17,-1.0,1.0,6.123233995736766E-17,229.0,249.0)" style="font-size:1.0000000000000013px;">Grenada</text>
  <rect x="242.0" y="6.0" width="2.5510204081632653" height="4.0" style="fill:cyan;opacity:0.3;"/>
  <text x="242.0" y="10.0" transform="matrix(6.123233995736766E-17,-1.0,1.0,6.123233995736766E-17,232.0,252.0)" style="font-size:1.0000000000000013px;">Turkey</text>
  <rect x="244.0" y="6.0" width="2.5510204081632653" height="4.0" style="fill:cyan;opacity:0.3;"/>
  <text x="244.0" y="10.0" transform="matrix(6.123233995736766E-17,-1.0,1.0,6.123233995736766E-17,234.0,254.0)" style="font-size:1.0000000000000013px;">New Zealand.</text>
  <rect x="247.0" y="6.0" width="2.5510204081632653" height="4.0" style="fill:cyan;opacity:0.3;"/>
  <text x="247.0" y="10.0" transform="matrix(6.123233995736766E-17,-1.0,1.0,6.123233995736766E-17,236.99999999999997,257.0)" style="font-size:1.0000000000000013px;">Egypt</text>
  <rect x="249.0" y="6.0" width="2.5510204081632653" height="4.0" style="fill:cyan;opacity:0.3;"/>
  <text x="249.0" y="10.0" transform="matrix(6.123233995736766E-17,-1.0,1.0,6.123233995736766E-17,238.99999999999997,259.0)" style="font-size:1.0000000000000013px;">Nicaragua</text>
  <rect x="252.0" y="7.0" width="2.5510204081632653" height="3.0" style="fill:cyan;opacity:0.3;"/>
  <text x="252.0" y="10.0" transform="matrix(6.123233995736766E-17,-1.0,1.0,6.123233995736766E-17,241.99999999999997,262.0)" style="font-size:1.0000000000000013px;">Papua New Guine</text>
  <rect x="254.0" y="7.0" width="2.5510204081632653" height="3.0" style="fill:cyan;opacity:0.3;"/>
  <text x="254.0" y="10.0" transform="matrix(6.123233995736766E-17,-1.0,1.0,6.123233995736766E-17,243.99999999999997,264.0)" style="font-size:1.0000000000000013px;">Congo</text>
  <rect x="257.0" y="7.0" width="2.5510204081632653" height="3.0" style="fill:cyan;opacity:0.3;"/>
  <text x="257.0" y="10.0" transform="matrix(6.123233995736766E-17,-1.0,1.0,6.123233995736766E-17,246.99999999999997,267.0)" style="font-size:1.0000000000000013px;">Malawi</text>
  <rect x="260.0" y="7.0" width="2.5510204081632653" height="3.0" style="fill:cyan;opacity:0.3;"/>
  <text x="260.0" y="10.0" transform="matrix(6.123233995736766E-17,-1.0,1.0,6.123233995736766E-17,249.99999999999997,270.0)" style="font-size:1.0000000000000013px;">Czech Republic</text>
  <rect x="262.0" y="7.0" width="2.5510204081632653" height="3.0" style="fill:cyan;opacity:0.3;"/>
  <text x="262.0" y="10.0" transform="matrix(6.123233995736766E-17,-1.0,1.0,6.123233995736766E-17,251.99999999999997,272.0)" style="font-size:1.0000000000000013px;">Cameroon</text>
  <rect x="265.0" y="7.0" width="2.5510204081632653" height="3.0" style="fill:cyan;opacity:0.3;"/>
  <text x="265.0" y="10.0" transform="matrix(6.123233995736766E-17,-1.0,1.0,6.123233995736766E-17,254.99999999999997,275.0)" style="font-size:1.0000000000000013px;">Malaysia</text>
  <rect x="267.0" y="7.0" width="2.5510204081632653" height="3.0" style="fill:cyan;opacity:0.3;"/>
  <text x="267.0" y="10.0" transform="matrix(6.123233995736766E-17,-1.0,1.0,6.123233995736766E-17,257.0,277.0)" style="font-size:1.0000000000000013px;">Dominican Repub</text>
  <rect x="270.0" y="7.0" width="2.5510204081632653" height="3.0" style="fill:cyan;opacity:0.3;"/>
  <text x="270.0" y="10.0" transform="matrix(6.123233995736766E-17,-1.0,1.0,6.123233995736766E-17,260.0,280.0)" style="font-size:1.0000000000000013px;">Haiti</text>
  <rect x="272.0" y="7.0" width="2.5510204081632653" height="3.0" style="fill:cyan;opacity:0.3;"/>
  <text x="272.0" y="10.0" transform="matrix(6.123233995736766E-17,-1.0,1.0,6.123233995736766E-17,262.0,282.0)" style="font-size:1.0000000000000013px;">Antigua</text>
  <rect x="275.0" y="7.0" width="2.5510204081632653" height="3.0" style="fill:cyan;opacity:0.3;"/>
  <text x="275.0" y="10.0" transform="matrix(6.123233995736766E-17,-1.0,1.0,6.123233995736766E-17,265.0,285.0)" style="font-size:1.0000000000000013px;">Romania</text>
  <rect x="277.0" y="7.0" width="2.5510204081632653" height="3.0" style="fill:cyan;opacity:0.3;"/>
  <text x="277.0" y="10.0" transform="matrix(6.123233995736766E-17,-1.0,1.0,6.123233995736766E-17,267.0,287.0)" style="font-size:1.0000000000000013px;">Guatemala</text>
  <rect x="280.0" y="7.0" width="2.5510204081632653" height="3.0" style="fill:cyan;opacity:0.3;"/>
  <text x="280.0" y="10.0" transform="matrix(6.123233995736766E-17,-1.0,1.0,6.123233995736766E-17,270.0,290.0)" style="font-size:1.0000000000000013px;">Ukraine</text>
  <rect x="282.0" y="7.0" width="2.5510204081632653" height="3.0" style="fill:cyan;opacity:0.3;"/>
  <text x="282.0" y="10.0" transform="matrix(6.123233995736766E-17,-1.0,1.0,6.123233995736766E-17,272.0,292.0)" style="font-size:1.0000000000000013px;">Sri Lanka,</text>
  <rect x="285.0" y="7.0" width="2.5510204081632653" height="3.0" style="fill:cyan;opacity:0.3;"/>
  <text x="285.0" y="10.0" transform="matrix(6.123233995736766E-17,-1.0,1.0,6.123233995736766E-17,275.0,295.0)" style="font-size:1.0000000000000013px;">Sri Lanka</text>
  <rect x="288.0" y="7.0" width="2.5510204081632653" height="3.0" style="fill:cyan;opacity:0.3;"/>
  <text x="288.0" y="10.0" transform="matrix(6.123233995736766E-17,-1.0,1.0,6.123233995736766E-17,278.0,298.0)" style="font-size:1.0000000000000013px;">Uruguay</text>
  <rect x="290.0" y="7.0" width="2.5510204081632653" height="3.0" style="fill:cyan;opacity:0.3;"/>
  <text x="290.0" y="10.0" transform="matrix(6.123233995736766E-17,-1.0,1.0,6.123233995736766E-17,280.0,300.0)" style="font-size:1.0000000000000013px;">Burkina Faso</text>
  <rect x="293.0" y="7.0" width="2.5510204081632653" height="3.0" style="fill:cyan;opacity:0.3;"/>
  <text x="293.0" y="10.0" transform="matrix(6.123233995736766E-17,-1.0,1.0,6.123233995736766E-17,283.0,303.0)" style="font-size:1.0000000000000013px;">Palau</text>
  <rect x="295.0" y="7.0" width="2.5510204081632653" height="3.0" style="fill:cyan;opacity:0.3;"/>
  <text x="295.0" y="10.0" transform="matrix(6.123233995736766E-17,-1.0,1.0,6.123233995736766E-17,285.0,305.0)" style="font-size:1.0000000000000013px;">Puerto Rico.</text>
  <rect x="298.0" y="7.0" width="2.5510204081632653" height="3.0" style="fill:cyan;opacity:0.3;"/>
  <text x="298.0" y="10.0" transform="matrix(6.123233995736766E-17,-1.0,1.0,6.123233995736766E-17,288.0,308.0)" style="font-size:1.0000000000000013px;">Mozambique</text>
  <rect x="300.0" y="7.0" width="2.5510204081632653" height="3.0" style="fill:cyan;opacity:0.3;"/>
  <text x="300.0" y="10.0" transform="matrix(6.123233995736766E-17,-1.0,1.0,6.123233995736766E-17,290.0,310.0)" style="font-size:1.0000000000000013px;">Monaco</text>
  <rect x="303.0" y="7.0" width="2.5510204081632653" height="3.0" style="fill:cyan;opacity:0.3;"/>
  <text x="303.0" y="10.0" transform="matrix(6.123233995736766E-17,-1.0,1.0,6.123233995736766E-17,293.0,313.0)" style="font-size:1.0000000000000013px;">Botswana</text>
  <rect x="305.0" y="8.0" width="2.5510204081632653" height="2.0" style="fill:cyan;opacity:0.3;"/>
  <text x="305.0" y="10.0" transform="matrix(6.123233995736766E-17,-1.0,1.0,6.123233995736766E-17,295.0,315.0)" style="font-size:1.0000000000000013px;">Papua New Guine</text>
  <rect x="308.0" y="8.0" width="2.5510204081632653" height="2.0" style="fill:cyan;opacity:0.3;"/>
  <text x="308.0" y="10.0" transform="matrix(6.123233995736766E-17,-1.0,1.0,6.123233995736766E-17,298.0,318.0)" style="font-size:1.0000000000000013px;">Cambodia</text>
  <rect x="311.0" y="8.0" width="2.5510204081632653" height="2.0" style="fill:cyan;opacity:0.3;"/>
  <text x="311.0" y="10.0" transform="matrix(6.123233995736766E-17,-1.0,1.0,6.123233995736766E-17,301.0,321.0)" style="font-size:1.0000000000000013px;">Kazakhstan</text>
  <rect x="313.0" y="8.0" width="2.5510204081632653" height="2.0" style="fill:cyan;opacity:0.3;"/>
  <text x="313.0" y="10.0" transform="matrix(6.123233995736766E-17,-1.0,1.0,6.123233995736766E-17,303.0,323.0)" style="font-size:1.0000000000000013px;">Solomon Islands</text>
  <rect x="316.0" y="8.0" width="2.5510204081632653" height="2.0" style="fill:cyan;opacity:0.3;"/>
  <text x="316.0" y="10.0" transform="matrix(6.123233995736766E-17,-1.0,1.0,6.123233995736766E-17,306.0,326.0)" style="font-size:1.0000000000000013px;">Sierra Leone,</text>
  <rect x="318.0" y="8.0" width="2.5510204081632653" height="2.0" style="fill:cyan;opacity:0.3;"/>
  <text x="318.0" y="10.0" transform="matrix(6.123233995736766E-17,-1.0,1.0,6.123233995736766E-17,308.0,328.0)" style="font-size:1.0000000000000013px;">Hong Kong,</text>
  <rect x="321.0" y="8.0" width="2.5510204081632653" height="2.0" style="fill:cyan;opacity:0.3;"/>
  <text x="321.0" y="10.0" transform="matrix(6.123233995736766E-17,-1.0,1.0,6.123233995736766E-17,311.0,331.0)" style="font-size:1.0000000000000013px;">Hong Kong.</text>
  <rect x="323.0" y="8.0" width="2.5510204081632653" height="2.0" style="fill:cyan;opacity:0.3;"/>
  <text x="323.0" y="10.0" transform="matrix(6.123233995736766E-17,-1.0,1.0,6.123233995736766E-17,313.0,333.0)" style="font-size:1.0000000000000013px;">South Africa?</text>
  <rect x="326.0" y="8.0" width="2.5510204081632653" height="2.0" style="fill:cyan;opacity:0.3;"/>
  <text x="326.0" y="10.0" transform="matrix(6.123233995736766E-17,-1.0,1.0,6.123233995736766E-17,316.0,336.0)" style="font-size:1.0000000000000013px;">Myanmar</text>
  <rect x="328.0" y="8.0" width="2.5510204081632653" height="2.0" style="fill:cyan;opacity:0.3;"/>
  <text x="328.0" y="10.0" transform="matrix(6.123233995736766E-17,-1.0,1.0,6.123233995736766E-17,318.0,338.0)" style="font-size:1.0000000000000013px;">Gibraltar</text>
  <rect x="331.0" y="8.0" width="2.5510204081632653" height="2.0" style="fill:cyan;opacity:0.3;"/>
  <text x="331.0" y="10.0" transform="matrix(6.123233995736766E-17,-1.0,1.0,6.123233995736766E-17,321.0,341.0)" style="font-size:1.0000000000000013px;">New Caledonia;</text>
  <rect x="333.0" y="8.0" width="2.5510204081632653" height="2.0" style="fill:cyan;opacity:0.3;"/>
  <text x="333.0" y="10.0" transform="matrix(6.123233995736766E-17,-1.0,1.0,6.123233995736766E-17,323.0,343.0)" style="font-size:1.0000000000000013px;">Oman</text>
  <rect x="336.0" y="8.0" width="2.5510204081632653" height="2.0" style="fill:cyan;opacity:0.3;"/>
  <text x="336.0" y="10.0" transform="matrix(6.123233995736766E-17,-1.0,1.0,6.123233995736766E-17,326.0,346.0)" style="font-size:1.0000000000000013px;">Algeria</text>
  <rect x="339.0" y="8.0" width="2.5510204081632653" height="2.0" style="fill:cyan;opacity:0.3;"/>
  <text x="339.0" y="10.0" transform="matrix(6.123233995736766E-17,-1.0,1.0,6.123233995736766E-17,329.0,349.0)" style="font-size:1.0000000000000013px;">Antigua and Bar</text>
  <rect x="341.0" y="8.0" width="2.5510204081632653" height="2.0" style="fill:cyan;opacity:0.3;"/>
  <text x="341.0" y="10.0" transform="matrix(6.123233995736766E-17,-1.0,1.0,6.123233995736766E-17,331.0,351.0)" style="font-size:1.0000000000000013px;">Russian Federat</text>
  <rect x="344.0" y="8.0" width="2.5510204081632653" height="2.0" style="fill:cyan;opacity:0.3;"/>
  <text x="344.0" y="10.0" transform="matrix(6.123233995736766E-17,-1.0,1.0,6.123233995736766E-17,334.0,354.0)" style="font-size:1.0000000000000013px;">Dominican Repub</text>
  <rect x="346.0" y="8.0" width="2.5510204081632653" height="2.0" style="fill:cyan;opacity:0.3;"/>
  <text x="346.0" y="10.0" transform="matrix(6.123233995736766E-17,-1.0,1.0,6.123233995736766E-17,336.0,356.0)" style="font-size:1.0000000000000013px;">Russian Federat</text>
  <rect x="349.0" y="8.0" width="2.5510204081632653" height="2.0" style="fill:cyan;opacity:0.3;"/>
  <text x="349.0" y="10.0" transform="matrix(6.123233995736766E-17,-1.0,1.0,6.123233995736766E-17,339.0,359.0)" style="font-size:1.0000000000000013px;">United States?</text>
  <rect x="351.0" y="8.0" width="2.5510204081632653" height="2.0" style="fill:cyan;opacity:0.3;"/>
  <text x="351.0" y="10.0" transform="matrix(6.123233995736766E-17,-1.0,1.0,6.123233995736766E-17,341.0,361.0)" style="font-size:1.0000000000000013px;">Benin</text>
  <rect x="354.0" y="8.0" width="2.5510204081632653" height="2.0" style="fill:cyan;opacity:0.3;"/>
  <text x="354.0" y="10.0" transform="matrix(6.123233995736766E-17,-1.0,1.0,6.123233995736766E-17,344.0,364.0)" style="font-size:1.0000000000000013px;">Angola</text>
  <rect x="356.0" y="8.0" width="2.5510204081632653" height="2.0" style="fill:cyan;opacity:0.3;"/>
  <text x="356.0" y="10.0" transform="matrix(6.123233995736766E-17,-1.0,1.0,6.123233995736766E-17,346.0,366.0)" style="font-size:1.0000000000000013px;">Sudan</text>
  <rect x="359.0" y="8.0" width="2.5510204081632653" height="2.0" style="fill:cyan;opacity:0.3;"/>
  <text x="359.0" y="10.0" transform="matrix(6.123233995736766E-17,-1.0,1.0,6.123233995736766E-17,349.0,369.0)" style="font-size:1.0000000000000013px;">New Caledonia</text>
  <rect x="362.0" y="8.0" width="2.5510204081632653" height="2.0" style="fill:cyan;opacity:0.3;"/>
  <text x="362.0" y="10.0" transform="matrix(6.123233995736766E-17,-1.0,1.0,6.123233995736766E-17,352.0,372.0)" style="font-size:1.0000000000000013px;">Trinidad and To</text>
  <rect x="364.0" y="8.0" width="2.5510204081632653" height="2.0" style="fill:cyan;opacity:0.3;"/>
  <text x="364.0" y="10.0" transform="matrix(6.123233995736766E-17,-1.0,1.0,6.123233995736766E-17,354.0,374.0)" style="font-size:1.0000000000000013px;">Bermuda</text>
  <rect x="367.0" y="8.0" width="2.5510204081632653" height="2.0" style="fill:cyan;opacity:0.3;"/>
  <text x="367.0" y="10.0" transform="matrix(6.123233995736766E-17,-1.0,1.0,6.123233995736766E-17,357.0,377.0)" style="font-size:1.0000000000000013px;">French Polynesi</text>
  <rect x="369.0" y="8.0" width="2.5510204081632653" height="2.0" style="fill:cyan;opacity:0.3;"/>
  <text x="369.0" y="10.0" transform="matrix(6.123233995736766E-17,-1.0,1.0,6.123233995736766E-17,359.0,379.0)" style="font-size:1.0000000000000013px;">Tonga</text>
  <rect x="372.0" y="8.0" width="2.5510204081632653" height="2.0" style="fill:cyan;opacity:0.3;"/>
  <text x="372.0" y="10.0" transform="matrix(6.123233995736766E-17,-1.0,1.0,6.123233995736766E-17,362.0,382.0)" style="font-size:1.0000000000000013px;">Burkina Faso,</text>
  <rect x="374.0" y="8.0" width="2.5510204081632653" height="2.0" style="fill:cyan;opacity:0.3;"/>
  <text x="374.0" y="10.0" transform="matrix(6.123233995736766E-17,-1.0,1.0,6.123233995736766E-17,364.0,384.0)" style="font-size:1.0000000000000013px;">Uganda</text>
  <rect x="377.0" y="9.0" width="2.5510204081632653" height="1.0" style="fill:cyan;opacity:0.3;"/>
  <text x="377.0" y="10.0" transform="matrix(6.123233995736766E-17,-1.0,1.0,6.123233995736766E-17,367.0,387.0)" style="font-size:1.0000000000000013px;">Paraguay</text>
  <rect x="379.0" y="9.0" width="2.5510204081632653" height="1.0" style="fill:cyan;opacity:0.3;"/>
  <text x="379.0" y="10.0" transform="matrix(6.123233995736766E-17,-1.0,1.0,6.123233995736766E-17,369.0,389.0)" style="font-size:1.0000000000000013px;">Marshall Island</text>
  <rect x="382.0" y="9.0" width="2.5510204081632653" height="1.0" style="fill:cyan;opacity:0.3;"/>
  <text x="382.0" y="10.0" transform="matrix(6.123233995736766E-17,-1.0,1.0,6.123233995736766E-17,372.0,392.0)" style="font-size:1.0000000000000013px;">Panama</text>
  <rect x="385.0" y="9.0" width="2.5510204081632653" height="1.0" style="fill:cyan;opacity:0.3;"/>
  <text x="385.0" y="10.0" transform="matrix(6.123233995736766E-17,-1.0,1.0,6.123233995736766E-17,375.0,395.0)" style="font-size:1.0000000000000013px;">Viet Nam,</text>
  <rect x="387.0" y="9.0" width="2.5510204081632653" height="1.0" style="fill:cyan;opacity:0.3;"/>
  <text x="387.0" y="10.0" transform="matrix(6.123233995736766E-17,-1.0,1.0,6.123233995736766E-17,377.0,397.0)" style="font-size:1.0000000000000013px;">French Guiana,</text>
  <rect x="390.0" y="9.0" width="2.5510204081632653" height="1.0" style="fill:cyan;opacity:0.3;"/>
  <text x="390.0" y="10.0" transform="matrix(6.123233995736766E-17,-1.0,1.0,6.123233995736766E-17,380.0,400.0)" style="font-size:1.0000000000000013px;">Trinidad and To</text>
  <rect x="392.0" y="9.0" width="2.5510204081632653" height="1.0" style="fill:cyan;opacity:0.3;"/>
  <text x="392.0" y="10.0" transform="matrix(6.123233995736766E-17,-1.0,1.0,6.123233995736766E-17,382.0,402.0)" style="font-size:1.0000000000000013px;">Seychelles</text>
  <rect x="395.0" y="9.0" width="2.5510204081632653" height="1.0" style="fill:cyan;opacity:0.3;"/>
  <text x="395.0" y="10.0" transform="matrix(6.123233995736766E-17,-1.0,1.0,6.123233995736766E-17,385.0,405.0)" style="font-size:1.0000000000000013px;">South Africa;</text>
  <rect x="397.0" y="9.0" width="2.5510204081632653" height="1.0" style="fill:cyan;opacity:0.3;"/>
  <text x="397.0" y="10.0" transform="matrix(6.123233995736766E-17,-1.0,1.0,6.123233995736766E-17,387.0,407.0)" style="font-size:1.0000000000000013px;">Bulgaria</text>
  <rect x="400.0" y="9.0" width="2.5510204081632653" height="1.0" style="fill:cyan;opacity:0.3;"/>
  <text x="400.0" y="10.0" transform="matrix(6.123233995736766E-17,-1.0,1.0,6.123233995736766E-17,390.0,410.0)" style="font-size:1.0000000000000013px;">Côte d'Ivoire</text>
  <rect x="402.0" y="9.0" width="2.5510204081632653" height="1.0" style="fill:cyan;opacity:0.3;"/>
  <text x="402.0" y="10.0" transform="matrix(6.123233995736766E-17,-1.0,1.0,6.123233995736766E-17,392.0,412.0)" style="font-size:1.0000000000000013px;">Tuvalu</text>
  <rect x="405.0" y="9.0" width="2.5510204081632653" height="1.0" style="fill:cyan;opacity:0.3;"/>
  <text x="405.0" y="10.0" transform="matrix(6.123233995736766E-17,-1.0,1.0,6.123233995736766E-17,395.0,415.0)" style="font-size:1.0000000000000013px;">Lebanon</text>
  <rect x="407.0" y="9.0" width="2.5510204081632653" height="1.0" style="fill:cyan;opacity:0.3;"/>
  <text x="407.0" y="10.0" transform="matrix(6.123233995736766E-17,-1.0,1.0,6.123233995736766E-17,397.0,417.0)" style="font-size:1.0000000000000013px;">Guernsey</text>
  <rect x="410.0" y="9.0" width="2.5510204081632653" height="1.0" style="fill:cyan;opacity:0.3;"/>
  <text x="410.0" y="10.0" transform="matrix(6.123233995736766E-17,-1.0,1.0,6.123233995736766E-17,400.0,420.0)" style="font-size:1.0000000000000013px;">United Kingdom;</text>
  <rect x="413.0" y="9.0" width="2.5510204081632653" height="1.0" style="fill:cyan;opacity:0.3;"/>
  <text x="413.0" y="10.0" transform="matrix(6.123233995736766E-17,-1.0,1.0,6.123233995736766E-17,403.0,423.0)" style="font-size:1.0000000000000013px;">Armenia</text>
  <rect x="415.0" y="9.0" width="2.5510204081632653" height="1.0" style="fill:cyan;opacity:0.3;"/>
  <text x="415.0" y="10.0" transform="matrix(6.123233995736766E-17,-1.0,1.0,6.123233995736766E-17,405.0,425.0)" style="font-size:1.0000000000000013px;">Gabon</text>
  <rect x="418.0" y="9.0" width="2.5510204081632653" height="1.0" style="fill:cyan;opacity:0.3;"/>
  <text x="418.0" y="10.0" transform="matrix(6.123233995736766E-17,-1.0,1.0,6.123233995736766E-17,408.0,428.0)" style="font-size:1.0000000000000013px;">New Caledonia,</text>
  <rect x="420.0" y="9.0" width="2.5510204081632653" height="1.0" style="fill:cyan;opacity:0.3;"/>
  <text x="420.0" y="10.0" transform="matrix(6.123233995736766E-17,-1.0,1.0,6.123233995736766E-17,410.0,430.0)" style="font-size:1.0000000000000013px;">Slovenia</text>
  <rect x="423.0" y="9.0" width="2.5510204081632653" height="1.0" style="fill:cyan;opacity:0.3;"/>
  <text x="423.0" y="10.0" transform="matrix(6.123233995736766E-17,-1.0,1.0,6.123233995736766E-17,413.0,433.0)" style="font-size:1.0000000000000013px;">Vanuatu</text>
  <rect x="425.0" y="9.0" width="2.5510204081632653" height="1.0" style="fill:cyan;opacity:0.3;"/>
  <text x="425.0" y="10.0" transform="matrix(6.123233995736766E-17,-1.0,1.0,6.123233995736766E-17,415.0,435.0)" style="font-size:1.0000000000000013px;">Nauru</text>
  <rect x="428.0" y="9.0" width="2.5510204081632653" height="1.0" style="fill:cyan;opacity:0.3;"/>
  <text x="428.0" y="10.0" transform="matrix(6.123233995736766E-17,-1.0,1.0,6.123233995736766E-17,418.0,438.0)" style="font-size:1.0000000000000013px;">Afghanistan</text>
  <rect x="430.0" y="9.0" width="2.5510204081632653" height="1.0" style="fill:cyan;opacity:0.3;"/>
  <text x="430.0" y="10.0" transform="matrix(6.123233995736766E-17,-1.0,1.0,6.123233995736766E-17,420.0,440.0)" style="font-size:1.0000000000000013px;">French Guiana</text>
  <rect x="433.0" y="9.0" width="2.5510204081632653" height="1.0" style="fill:cyan;opacity:0.3;"/>
  <text x="433.0" y="10.0" transform="matrix(6.123233995736766E-17,-1.0,1.0,6.123233995736766E-17,423.0,443.0)" style="font-size:1.0000000000000013px;">Bhutan</text>
  <rect x="436.0" y="9.0" width="2.5510204081632653" height="1.0" style="fill:cyan;opacity:0.3;"/>
  <text x="436.0" y="10.0" transform="matrix(6.123233995736766E-17,-1.0,1.0,6.123233995736766E-17,426.0,446.0)" style="font-size:1.0000000000000013px;">Togo</text>
  <rect x="438.0" y="9.0" width="2.5510204081632653" height="1.0" style="fill:cyan;opacity:0.3;"/>
  <text x="438.0" y="10.0" transform="matrix(6.123233995736766E-17,-1.0,1.0,6.123233995736766E-17,428.0,448.0)" style="font-size:1.0000000000000013px;">Uzbekistan</text>
  <rect x="441.0" y="9.0" width="2.5510204081632653" height="1.0" style="fill:cyan;opacity:0.3;"/>
  <text x="441.0" y="10.0" transform="matrix(6.123233995736766E-17,-1.0,1.0,6.123233995736766E-17,431.0,451.0)" style="font-size:1.0000000000000013px;">Solomon Islands</text>
  <rect x="443.0" y="9.0" width="2.5510204081632653" height="1.0" style="fill:cyan;opacity:0.3;"/>
  <text x="443.0" y="10.0" transform="matrix(6.123233995736766E-17,-1.0,1.0,6.123233995736766E-17,433.0,453.0)" style="font-size:1.0000000000000013px;">Maldives</text>
  <rect x="446.0" y="9.0" width="2.5510204081632653" height="1.0" style="fill:cyan;opacity:0.3;"/>
  <text x="446.0" y="10.0" transform="matrix(6.123233995736766E-17,-1.0,1.0,6.123233995736766E-17,436.0,456.0)" style="font-size:1.0000000000000013px;">Sri Lanka.</text>
  <rect x="448.0" y="9.0" width="2.5510204081632653" height="1.0" style="fill:cyan;opacity:0.3;"/>
  <text x="448.0" y="10.0" transform="matrix(6.123233995736766E-17,-1.0,1.0,6.123233995736766E-17,438.0,458.0)" style="font-size:1.0000000000000013px;">Democratic Repu</text>
  <rect x="451.0" y="9.0" width="2.5510204081632653" height="1.0" style="fill:cyan;opacity:0.3;"/>
  <text x="451.0" y="10.0" transform="matrix(6.123233995736766E-17,-1.0,1.0,6.123233995736766E-17,441.0,461.0)" style="font-size:1.0000000000000013px;">Russian Federat</text>
  <rect x="453.0" y="9.0" width="2.5510204081632653" height="1.0" style="fill:cyan;opacity:0.3;"/>
  <text x="453.0" y="10.0" transform="matrix(6.123233995736766E-17,-1.0,1.0,6.123233995736766E-17,443.0,463.0)" style="font-size:1.0000000000000013px;">Kuwait</text>
  <rect x="456.0" y="9.0" width="2.5510204081632653" height="1.0" style="fill:cyan;opacity:0.3;"/>
  <text x="456.0" y="10.0" transform="matrix(6.123233995736766E-17,-1.0,1.0,6.123233995736766E-17,446.0,466.0)" style="font-size:1.0000000000000013px;">Croatia</text>
  <rect x="458.0" y="9.0" width="2.5510204081632653" height="1.0" style="fill:cyan;opacity:0.3;"/>
  <text x="458.0" y="10.0" transform="matrix(6.123233995736766E-17,-1.0,1.0,6.123233995736766E-17,448.0,468.0)" style="font-size:1.0000000000000013px;">Cook Islands</text>
  <rect x="461.0" y="9.0" width="2.5510204081632653" height="1.0" style="fill:cyan;opacity:0.3;"/>
  <text x="461.0" y="10.0" transform="matrix(6.123233995736766E-17,-1.0,1.0,6.123233995736766E-17,451.0,471.0)" style="font-size:1.0000000000000013px;">Samoa</text>
  <rect x="464.0" y="9.0" width="2.5510204081632653" height="1.0" style="fill:cyan;opacity:0.3;"/>
  <text x="464.0" y="10.0" transform="matrix(6.123233995736766E-17,-1.0,1.0,6.123233995736766E-17,454.0,474.0)" style="font-size:1.0000000000000013px;">Liberia</text>
  <rect x="466.0" y="9.0" width="2.5510204081632653" height="1.0" style="fill:cyan;opacity:0.3;"/>
  <text x="466.0" y="10.0" transform="matrix(6.123233995736766E-17,-1.0,1.0,6.123233995736766E-17,456.0,476.0)" style="font-size:1.0000000000000013px;">Niue</text>
  <rect x="469.0" y="9.0" width="2.5510204081632653" height="1.0" style="fill:cyan;opacity:0.3;"/>
  <text x="469.0" y="10.0" transform="matrix(6.123233995736766E-17,-1.0,1.0,6.123233995736766E-17,459.0,479.0)" style="font-size:1.0000000000000013px;">Puerto Rico,</text>
  <rect x="471.0" y="9.0" width="2.5510204081632653" height="1.0" style="fill:cyan;opacity:0.3;"/>
  <text x="471.0" y="10.0" transform="matrix(6.123233995736766E-17,-1.0,1.0,6.123233995736766E-17,461.0,481.0)" style="font-size:1.0000000000000013px;">South Sudan</text>
  <rect x="474.0" y="9.0" width="2.5510204081632653" height="1.0" style="fill:cyan;opacity:0.3;"/>
  <text x="474.0" y="10.0" transform="matrix(6.123233995736766E-17,-1.0,1.0,6.123233995736766E-17,464.0,484.0)" style="font-size:1.0000000000000013px;">Réunion</text>
  <rect x="476.0" y="9.0" width="2.5510204081632653" height="1.0" style="fill:cyan;opacity:0.3;"/>
  <text x="476.0" y="10.0" transform="matrix(6.123233995736766E-17,-1.0,1.0,6.123233995736766E-17,466.0,486.0)" style="font-size:1.0000000000000013px;">Saudi Arabia.</text>
  <rect x="479.0" y="9.0" width="2.5510204081632653" height="1.0" style="fill:cyan;opacity:0.3;"/>
  <text x="479.0" y="10.0" transform="matrix(6.123233995736766E-17,-1.0,1.0,6.123233995736766E-17,468.99999999999994,489.0)" style="font-size:1.0000000000000013px;">Belarus</text>
  <rect x="481.0" y="9.0" width="2.5510204081632653" height="1.0" style="fill:cyan;opacity:0.3;"/>
  <text x="481.0" y="10.0" transform="matrix(6.123233995736766E-17,-1.0,1.0,6.123233995736766E-17,470.99999999999994,491.0)" style="font-size:1.0000000000000013px;">Mauritius</text>
  <rect x="484.0" y="9.0" width="2.5510204081632653" height="1.0" style="fill:cyan;opacity:0.3;"/>
  <text x="484.0" y="10.0" transform="matrix(6.123233995736766E-17,-1.0,1.0,6.123233995736766E-17,473.99999999999994,494.0)" style="font-size:1.0000000000000013px;">Albania</text>
  <rect x="487.0" y="9.0" width="2.5510204081632653" height="1.0" style="fill:cyan;opacity:0.3;"/>
  <text x="487.0" y="10.0" transform="matrix(6.123233995736766E-17,-1.0,1.0,6.123233995736766E-17,476.99999999999994,497.0)" style="font-size:1.0000000000000013px;">United Arab Emi</text>
  <rect x="489.0" y="9.0" width="2.5510204081632653" height="1.0" style="fill:cyan;opacity:0.3;"/>
  <text x="489.0" y="10.0" transform="matrix(6.123233995736766E-17,-1.0,1.0,6.123233995736766E-17,478.99999999999994,499.0)" style="font-size:1.0000000000000013px;">Saudi Arabia,</text>
  <rect x="492.0" y="9.0" width="2.5510204081632653" height="1.0" style="fill:cyan;opacity:0.3;"/>
  <text x="492.0" y="10.0" transform="matrix(6.123233995736766E-17,-1.0,1.0,6.123233995736766E-17,481.99999999999994,502.0)" style="font-size:1.0000000000000013px;">Costa Rica,</text>
  <rect x="494.0" y="9.0" width="2.5510204081632653" height="1.0" style="fill:cyan;opacity:0.3;"/>
  <text x="494.0" y="10.0" transform="matrix(6.123233995736766E-17,-1.0,1.0,6.123233995736766E-17,483.99999999999994,504.0)" style="font-size:1.0000000000000013px;">Malta</text>
  <rect x="497.0" y="9.0" width="2.5510204081632653" height="1.0" style="fill:cyan;opacity:0.3;"/>
  <text x="497.0" y="10.0" transform="matrix(6.123233995736766E-17,-1.0,1.0,6.123233995736766E-17,486.99999999999994,507.0)" style="font-size:1.0000000000000013px;">Burkina Faso.</text>
  <rect x="499.0" y="9.0" width="2.5510204081632653" height="1.0" style="fill:cyan;opacity:0.3;"/>
  <text x="499.0" y="10.0" transform="matrix(6.123233995736766E-17,-1.0,1.0,6.123233995736766E-17,488.99999999999994,509.0)" style="font-size:1.0000000000000013px;">Serbia</text>
  <rect x="502.0" y="9.0" width="2.5510204081632653" height="1.0" style="fill:cyan;opacity:0.3;"/>
  <text x="502.0" y="10.0" transform="matrix(6.123233995736766E-17,-1.0,1.0,6.123233995736766E-17,491.99999999999994,512.0)" style="font-size:1.0000000000000013px;">Niger</text>
  <rect x="504.0" y="9.0" width="2.5510204081632653" height="1.0" style="fill:cyan;opacity:0.3;"/>
  <text x="504.0" y="10.0" transform="matrix(6.123233995736766E-17,-1.0,1.0,6.123233995736766E-17,493.99999999999994,514.0)" style="font-size:1.0000000000000013px;">Rwanda</text>
  <rect x="507.0" y="9.0" width="2.5510204081632653" height="1.0" style="fill:cyan;opacity:0.3;"/>
  <text x="507.0" y="10.0" transform="matrix(6.123233995736766E-17,-1.0,1.0,6.123233995736766E-17,496.99999999999994,517.0)" style="font-size:1.0000000000000013px;">Cook Islands,</text>
 </g>
</svg>
